{
    "asset" : {
        "generator" : "Khronos glTF Blender I/O v3.2.43",
        "version" : "2.0"
    },
    "scene" : 0,
    "scenes" : [
        {
            "name" : "Scene",
            "nodes" : [
                10
            ]
        }
    ],
    "nodes" : [
        {
            "mesh" : 0,
            "name" : "battery",
            "translation" : [
                -0.0012100000167265534,
                -0.047814007848501205,
                -0.07730400562286377
            ]
        },
        {
            "name" : "plasmaammo_bone"
        },
        {
            "children" : [
                0,
                1
            ],
            "name" : "battery_bone",
            "translation" : [
                0.0012100000167265534,
                -0.06972299516201019,
                0.03652500733733177
            ]
        },
        {
            "name" : "grip_point",
            "translation" : [
                0,
                -0.05727299302816391,
                -0.09535299241542816
            ]
        },
        {
            "mesh" : 1,
            "name" : "plasmagun",
            "translation" : [
                0,
                -0.1175369992852211,
                -0.040778998285532
            ]
        },
        {
            "mesh" : 2,
            "name" : "switcher",
            "translation" : [
                -0.01489999983459711,
                -0.131865993142128,
                0.014815998263657093
            ]
        },
        {
            "children" : [
                5
            ],
            "name" : "switcher_bone",
            "translation" : [
                0.01489999983459711,
                0.014328996650874615,
                -0.055594995617866516
            ]
        },
        {
            "mesh" : 3,
            "name" : "trigger",
            "translation" : [
                -7.599999662488699e-05,
                -0.0928650051355362,
                -0.00490200612694025
            ]
        },
        {
            "children" : [
                7
            ],
            "name" : "trigger_bone",
            "translation" : [
                7.599999662488699e-05,
                -0.024671994149684906,
                -0.03587699308991432
            ]
        },
        {
            "children" : [
                2,
                3,
                4,
                6,
                8
            ],
            "name" : "plasmagun_bone",
            "translation" : [
                0,
                0.1175369992852211,
                0.040778998285532
            ]
        },
        {
            "children" : [
                9
            ],
            "name" : "Plasmagun_root_bone"
        }
    ],
    "materials" : [
        {
            "doubleSided" : true,
            "name" : "Plasmagun.001",
            "pbrMetallicRoughness" : {
                "baseColorTexture" : {
                    "index" : 0
                },
                "metallicFactor" : 0,
                "roughnessFactor" : 0.5
            }
        }
    ],
    "meshes" : [
        {
            "name" : "battery.001",
            "primitives" : [
                {
                    "attributes" : {
                        "POSITION" : 0,
                        "NORMAL" : 1,
                        "TEXCOORD_0" : 2
                    },
                    "indices" : 3,
                    "material" : 0
                }
            ]
        },
        {
            "name" : "plasmagun.001",
            "primitives" : [
                {
                    "attributes" : {
                        "POSITION" : 4,
                        "NORMAL" : 5,
                        "TEXCOORD_0" : 6
                    },
                    "indices" : 7,
                    "material" : 0
                }
            ]
        },
        {
            "name" : "switcher.001",
            "primitives" : [
                {
                    "attributes" : {
                        "POSITION" : 8,
                        "NORMAL" : 9,
                        "TEXCOORD_0" : 10
                    },
                    "indices" : 11,
                    "material" : 0
                }
            ]
        },
        {
            "name" : "trigger.001",
            "primitives" : [
                {
                    "attributes" : {
                        "POSITION" : 12,
                        "NORMAL" : 13,
                        "TEXCOORD_0" : 14
                    },
                    "indices" : 15,
                    "material" : 0
                }
            ]
        }
    ],
    "textures" : [
        {
            "sampler" : 0,
            "source" : 0
        }
    ],
    "images" : [
        {
            "bufferView" : 4,
            "mimeType" : "image/png",
            "name" : "Plasmagun_a_blurred"
        }
    ],
    "accessors" : [
        {
            "bufferView" : 0,
            "componentType" : 5126,
            "count" : 400,
            "max" : [
                0.009406308643519878,
                0.09313669800758362,
                0.14365318417549133
            ],
            "min" : [
                -0.011532159522175789,
                0.02083921618759632,
                0.03563902899622917
            ],
            "type" : "VEC3"
        },
        {
            "bufferView" : 1,
            "componentType" : 5126,
            "count" : 400,
            "type" : "VEC3"
        },
        {
            "bufferView" : 2,
            "componentType" : 5126,
            "count" : 400,
            "type" : "VEC2"
        },
        {
            "bufferView" : 3,
            "componentType" : 5123,
            "count" : 960,
            "type" : "SCALAR"
        },
        {
            "bufferView" : 5,
            "componentType" : 5126,
            "count" : 915,
            "max" : [
                0.014622101560235023,
                0.07548270374536514,
                0.1496015042066574
            ],
            "min" : [
                -0.014798339456319809,
                -0.09289287030696869,
                -0.09011688083410263
            ],
            "type" : "VEC3"
        },
        {
            "bufferView" : 6,
            "componentType" : 5126,
            "count" : 915,
            "type" : "VEC3"
        },
        {
            "bufferView" : 7,
            "componentType" : 5126,
            "count" : 915,
            "type" : "VEC2"
        },
        {
            "bufferView" : 8,
            "componentType" : 5123,
            "count" : 2457,
            "type" : "SCALAR"
        },
        {
            "bufferView" : 9,
            "componentType" : 5126,
            "count" : 48,
            "max" : [
                0.014899911358952522,
                0.1383136361837387,
                -0.008803848177194595
            ],
            "min" : [
                0.013368090614676476,
                0.12404411286115646,
                -0.022605400532484055
            ],
            "type" : "VEC3"
        },
        {
            "bufferView" : 10,
            "componentType" : 5126,
            "count" : 48,
            "type" : "VEC3"
        },
        {
            "bufferView" : 11,
            "componentType" : 5126,
            "count" : 48,
            "type" : "VEC2"
        },
        {
            "bufferView" : 12,
            "componentType" : 5123,
            "count" : 123,
            "type" : "SCALAR"
        },
        {
            "bufferView" : 13,
            "componentType" : 5126,
            "count" : 104,
            "max" : [
                0.0029392598662525415,
                0.11413570493459702,
                0.011627745814621449
            ],
            "min" : [
                -0.0016132600139826536,
                0.07554232329130173,
                -0.011757993139326572
            ],
            "type" : "VEC3"
        },
        {
            "bufferView" : 14,
            "componentType" : 5126,
            "count" : 104,
            "type" : "VEC3"
        },
        {
            "bufferView" : 15,
            "componentType" : 5126,
            "count" : 104,
            "type" : "VEC2"
        },
        {
            "bufferView" : 16,
            "componentType" : 5123,
            "count" : 276,
            "type" : "SCALAR"
        }
    ],
    "bufferViews" : [
        {
            "buffer" : 0,
            "byteLength" : 4800,
            "byteOffset" : 0
        },
        {
            "buffer" : 0,
            "byteLength" : 4800,
            "byteOffset" : 4800
        },
        {
            "buffer" : 0,
            "byteLength" : 3200,
            "byteOffset" : 9600
        },
        {
            "buffer" : 0,
            "byteLength" : 1920,
            "byteOffset" : 12800
        },
        {
            "buffer" : 0,
            "byteLength" : 826905,
            "byteOffset" : 14720
        },
        {
            "buffer" : 0,
            "byteLength" : 10980,
            "byteOffset" : 841628
        },
        {
            "buffer" : 0,
            "byteLength" : 10980,
            "byteOffset" : 852608
        },
        {
            "buffer" : 0,
            "byteLength" : 7320,
            "byteOffset" : 863588
        },
        {
            "buffer" : 0,
            "byteLength" : 4914,
            "byteOffset" : 870908
        },
        {
            "buffer" : 0,
            "byteLength" : 576,
            "byteOffset" : 875824
        },
        {
            "buffer" : 0,
            "byteLength" : 576,
            "byteOffset" : 876400
        },
        {
            "buffer" : 0,
            "byteLength" : 384,
            "byteOffset" : 876976
        },
        {
            "buffer" : 0,
            "byteLength" : 246,
            "byteOffset" : 877360
        },
        {
            "buffer" : 0,
            "byteLength" : 1248,
            "byteOffset" : 877608
        },
        {
            "buffer" : 0,
            "byteLength" : 1248,
            "byteOffset" : 878856
        },
        {
            "buffer" : 0,
            "byteLength" : 832,
            "byteOffset" : 880104
        },
        {
            "buffer" : 0,
            "byteLength" : 552,
            "byteOffset" : 880936
        }
    ],
    "samplers" : [
        {
            "magFilter" : 9729,
            "minFilter" : 9987
        }
    ],
    "buffers" : [
        {
            "byteLength" : 881488,
            "uri" : "data:application/octet-stream;base64,"
        }
    ]
}
