{
    "asset" : {
        "generator" : "Khronos glTF Blender I/O v3.2.43",
        "version" : "2.0"
    },
    "scene" : 0,
    "scenes" : [
        {
            "name" : "Scene",
            "nodes" : [
                0,
                1,
                2,
                3
            ]
        }
    ],
    "nodes" : [
        {
            "mesh" : 0,
            "name" : "Cube"
        },
        {
            "mesh" : 1,
            "name" : "Glass"
        },
        {
            "mesh" : 2,
            "name" : "Chair",
            "scale" : [
                0.7796270251274109,
                0.5957523584365845,
                0.7796270251274109
            ],
            "translation" : [
                1.1290425062179565,
                -0.4438732862472534,
                -0.8207740187644958
            ]
        },
        {
            "mesh" : 3,
            "name" : "Cockpit",
            "rotation" : [
                0,
                -1,
                0,
                1.6292068494294654e-07
            ],
            "scale" : [
                0.6010270118713379,
                0.6010270118713379,
                0.7126072645187378
            ],
            "translation" : [
                2.5995657444000244,
                0.31563887000083923,
                -0.03069266676902771
            ]
        }
    ],
    "materials" : [
        {
            "doubleSided" : true,
            "name" : "Ship.001",
            "pbrMetallicRoughness" : {
                "baseColorTexture" : {
                    "index" : 0
                },
                "metallicFactor" : 0,
                "roughnessFactor" : 0.5
            }
        },
        {
            "alphaMode" : "BLEND",
            "doubleSided" : true,
            "name" : "Glass",
            "pbrMetallicRoughness" : {
                "baseColorFactor" : [
                    0.03309643641114235,
                    0.2202562838792801,
                    0.1854718178510666,
                    0.800000011920929
                ],
                "metallicFactor" : 0,
                "roughnessFactor" : 0.4000000059604645
            }
        },
        {
            "doubleSided" : true,
            "name" : "Chair",
            "pbrMetallicRoughness" : {
                "baseColorFactor" : [
                    0.43854397535324097,
                    0.33696258068084717,
                    0.07683088630437851,
                    1
                ],
                "metallicFactor" : 0,
                "roughnessFactor" : 0.5
            }
        },
        {
            "doubleSided" : true,
            "name" : "Cockpit",
            "pbrMetallicRoughness" : {
                "baseColorFactor" : [
                    0.05496889725327492,
                    0.05496889725327492,
                    0.05496889725327492,
                    1
                ],
                "metallicFactor" : 0,
                "roughnessFactor" : 0.5
            }
        }
    ],
    "meshes" : [
        {
            "name" : "Cube",
            "primitives" : [
                {
                    "attributes" : {
                        "POSITION" : 0,
                        "NORMAL" : 1,
                        "TEXCOORD_0" : 2
                    },
                    "indices" : 3,
                    "material" : 0
                }
            ]
        },
        {
            "name" : "Cube.001",
            "primitives" : [
                {
                    "attributes" : {
                        "POSITION" : 4,
                        "NORMAL" : 5,
                        "TEXCOORD_0" : 6
                    },
                    "indices" : 7,
                    "material" : 1
                }
            ]
        },
        {
            "name" : "Cube.002",
            "primitives" : [
                {
                    "attributes" : {
                        "POSITION" : 8,
                        "NORMAL" : 9,
                        "TEXCOORD_0" : 10
                    },
                    "indices" : 11,
                    "material" : 2
                }
            ]
        },
        {
            "name" : "Cube.004",
            "primitives" : [
                {
                    "attributes" : {
                        "POSITION" : 12,
                        "NORMAL" : 13,
                        "TEXCOORD_0" : 14
                    },
                    "indices" : 15,
                    "material" : 3
                }
            ]
        }
    ],
    "textures" : [
        {
            "sampler" : 0,
            "source" : 0
        }
    ],
    "images" : [
        {
            "bufferView" : 4,
            "mimeType" : "image/png",
            "name" : "SpaceShip"
        }
    ],
    "accessors" : [
        {
            "bufferView" : 0,
            "componentType" : 5126,
            "count" : 926,
            "max" : [
                3.8667848110198975,
                2.1994104385375977,
                5.2719221115112305
            ],
            "min" : [
                -2.571948766708374,
                -2.336261749267578,
                -5.2719221115112305
            ],
            "type" : "VEC3"
        },
        {
            "bufferView" : 1,
            "componentType" : 5126,
            "count" : 926,
            "type" : "VEC3"
        },
        {
            "bufferView" : 2,
            "componentType" : 5126,
            "count" : 926,
            "type" : "VEC2"
        },
        {
            "bufferView" : 3,
            "componentType" : 5123,
            "count" : 4038,
            "type" : "SCALAR"
        },
        {
            "bufferView" : 5,
            "componentType" : 5126,
            "count" : 15,
            "max" : [
                2.6841237545013428,
                2.054079532623291,
                1.7865984439849854
            ],
            "min" : [
                1.4492340087890625,
                1.1057130098342896,
                -1.7865984439849854
            ],
            "type" : "VEC3"
        },
        {
            "bufferView" : 6,
            "componentType" : 5126,
            "count" : 15,
            "type" : "VEC3"
        },
        {
            "bufferView" : 7,
            "componentType" : 5126,
            "count" : 15,
            "type" : "VEC2"
        },
        {
            "bufferView" : 8,
            "componentType" : 5123,
            "count" : 48,
            "type" : "SCALAR"
        },
        {
            "bufferView" : 9,
            "componentType" : 5126,
            "count" : 178,
            "max" : [
                0.7838274240493774,
                3.0753722190856934,
                3.0007081031799316
            ],
            "min" : [
                -0.9283630847930908,
                0.055633544921875,
                -0.8951524496078491
            ],
            "type" : "VEC3"
        },
        {
            "bufferView" : 10,
            "componentType" : 5126,
            "count" : 178,
            "type" : "VEC3"
        },
        {
            "bufferView" : 11,
            "componentType" : 5126,
            "count" : 178,
            "type" : "VEC2"
        },
        {
            "bufferView" : 12,
            "componentType" : 5123,
            "count" : 708,
            "type" : "SCALAR"
        },
        {
            "bufferView" : 13,
            "componentType" : 5126,
            "count" : 78,
            "max" : [
                1,
                1.3848787546157837,
                2.687274694442749
            ],
            "min" : [
                -1,
                -1,
                -2.68727445602417
            ],
            "type" : "VEC3"
        },
        {
            "bufferView" : 14,
            "componentType" : 5126,
            "count" : 78,
            "type" : "VEC3"
        },
        {
            "bufferView" : 15,
            "componentType" : 5126,
            "count" : 78,
            "type" : "VEC2"
        },
        {
            "bufferView" : 16,
            "componentType" : 5123,
            "count" : 258,
            "type" : "SCALAR"
        }
    ],
    "bufferViews" : [
        {
            "buffer" : 0,
            "byteLength" : 11112,
            "byteOffset" : 0
        },
        {
            "buffer" : 0,
            "byteLength" : 11112,
            "byteOffset" : 11112
        },
        {
            "buffer" : 0,
            "byteLength" : 7408,
            "byteOffset" : 22224
        },
        {
            "buffer" : 0,
            "byteLength" : 8076,
            "byteOffset" : 29632
        },
        {
            "buffer" : 0,
            "byteLength" : 136285,
            "byteOffset" : 37708
        },
        {
            "buffer" : 0,
            "byteLength" : 180,
            "byteOffset" : 173996
        },
        {
            "buffer" : 0,
            "byteLength" : 180,
            "byteOffset" : 174176
        },
        {
            "buffer" : 0,
            "byteLength" : 120,
            "byteOffset" : 174356
        },
        {
            "buffer" : 0,
            "byteLength" : 96,
            "byteOffset" : 174476
        },
        {
            "buffer" : 0,
            "byteLength" : 2136,
            "byteOffset" : 174572
        },
        {
            "buffer" : 0,
            "byteLength" : 2136,
            "byteOffset" : 176708
        },
        {
            "buffer" : 0,
            "byteLength" : 1424,
            "byteOffset" : 178844
        },
        {
            "buffer" : 0,
            "byteLength" : 1416,
            "byteOffset" : 180268
        },
        {
            "buffer" : 0,
            "byteLength" : 936,
            "byteOffset" : 181684
        },
        {
            "buffer" : 0,
            "byteLength" : 936,
            "byteOffset" : 182620
        },
        {
            "buffer" : 0,
            "byteLength" : 624,
            "byteOffset" : 183556
        },
        {
            "buffer" : 0,
            "byteLength" : 516,
            "byteOffset" : 184180
        }
    ],
    "samplers" : [
        {
            "magFilter" : 9729,
            "minFilter" : 9987
        }
    ],
    "buffers" : [
        {
            "byteLength" : 184696,
            "uri" : "data:application/octet-stream;base64,"
        }
    ]
}
