{
    "asset" : {
        "generator" : "Khronos glTF Blender I/O v3.2.43",
        "version" : "2.0"
    },
    "scene" : 0,
    "scenes" : [
        {
            "name" : "Scene",
            "nodes" : [
                0,
                1,
                2,
                3
            ]
        }
    ],
    "nodes" : [
        {
            "mesh" : 0,
            "name" : "BeeHive",
            "scale" : [
                1.672720193862915,
                1.672720193862915,
                1.672720193862915
            ],
            "translation" : [
                -0.012680294923484325,
                0.022829554975032806,
                -0.03442104905843735
            ]
        },
        {
            "mesh" : 1,
            "name" : "DoorFrame",
            "rotation" : [
                0,
                0,
                0.05608687922358513,
                0.9984259009361267
            ],
            "scale" : [
                2.663867950439453,
                1.6599278450012207,
                1.6828975677490234
            ],
            "translation" : [
                2.225752353668213,
                0.4685826599597931,
                -0.02194778062403202
            ]
        },
        {
            "mesh" : 2,
            "name" : "Door",
            "scale" : [
                1.6447906494140625,
                1.7444812059402466,
                1.712780475616455
            ],
            "translation" : [
                -0.05832761898636818,
                0.03756206855177879,
                -0.021532908082008362
            ]
        },
        {
            "mesh" : 3,
            "name" : "Floor",
            "scale" : [
                1.672720193862915,
                1.672720193862915,
                1.672720193862915
            ],
            "translation" : [
                -0.012680294923484325,
                0.09838315844535828,
                -0.03442104905843735
            ]
        }
    ],
    "materials" : [
        {
            "doubleSided" : true,
            "name" : "BeeHouse",
            "pbrMetallicRoughness" : {
                "baseColorTexture" : {
                    "index" : 0
                },
                "metallicFactor" : 0,
                "roughnessFactor" : 0.4000000059604645
            }
        },
        {
            "doubleSided" : true,
            "name" : "Door",
            "pbrMetallicRoughness" : {
                "baseColorTexture" : {
                    "index" : 1
                },
                "metallicFactor" : 0,
                "roughnessFactor" : 0.5
            }
        },
        {
            "doubleSided" : true,
            "name" : "Handle",
            "pbrMetallicRoughness" : {
                "baseColorTexture" : {
                    "index" : 2
                },
                "metallicFactor" : 0,
                "roughnessFactor" : 0.5
            }
        }
    ],
    "meshes" : [
        {
            "name" : "Cube",
            "primitives" : [
                {
                    "attributes" : {
                        "POSITION" : 0,
                        "NORMAL" : 1,
                        "TEXCOORD_0" : 2
                    },
                    "indices" : 3,
                    "material" : 0
                }
            ]
        },
        {
            "name" : "Cube.001",
            "primitives" : [
                {
                    "attributes" : {
                        "POSITION" : 4,
                        "NORMAL" : 5,
                        "TEXCOORD_0" : 6
                    },
                    "indices" : 7,
                    "material" : 0
                }
            ]
        },
        {
            "name" : "Cube.002",
            "primitives" : [
                {
                    "attributes" : {
                        "POSITION" : 8,
                        "NORMAL" : 9,
                        "TEXCOORD_0" : 10
                    },
                    "indices" : 11,
                    "material" : 1
                },
                {
                    "attributes" : {
                        "POSITION" : 12,
                        "NORMAL" : 13,
                        "TEXCOORD_0" : 14
                    },
                    "indices" : 15,
                    "material" : 2
                }
            ]
        },
        {
            "name" : "Cube.003",
            "primitives" : [
                {
                    "attributes" : {
                        "POSITION" : 16,
                        "NORMAL" : 17,
                        "TEXCOORD_0" : 18
                    },
                    "indices" : 19,
                    "material" : 0
                }
            ]
        }
    ],
    "textures" : [
        {
            "sampler" : 0,
            "source" : 0
        },
        {
            "sampler" : 0,
            "source" : 1
        },
        {
            "sampler" : 0,
            "source" : 2
        }
    ],
    "images" : [
        {
            "mimeType" : "image/png",
            "name" : "yellow-honeycomb-dark-dull-blurred-64x64",
            "uri" : "yellow-honeycomb-dark-dull-blurred-64x64.png"
        },
        {
            "mimeType" : "image/png",
            "name" : "door-blurred-64x64",
            "uri" : "door-blurred-64x64.png"
        },
        {
            "mimeType" : "image/png",
            "name" : "DoorHandle-blurred-32x32",
            "uri" : "DoorHandle-blurred-32x32.png"
        }
    ],
    "accessors" : [
        {
            "bufferView" : 0,
            "componentType" : 5126,
            "count" : 1056,
            "max" : [
                1.6062414646148682,
                2.226106882095337,
                1.6888214349746704
            ],
            "min" : [
                -1.5702589750289917,
                0.020660849288105965,
                -1.6888214349746704
            ],
            "type" : "VEC3"
        },
        {
            "bufferView" : 1,
            "componentType" : 5126,
            "count" : 1056,
            "type" : "VEC3"
        },
        {
            "bufferView" : 2,
            "componentType" : 5126,
            "count" : 1056,
            "type" : "VEC2"
        },
        {
            "bufferView" : 3,
            "componentType" : 5123,
            "count" : 4584,
            "type" : "SCALAR"
        },
        {
            "bufferView" : 4,
            "componentType" : 5126,
            "count" : 268,
            "max" : [
                0.20550143718719482,
                0.5190710425376892,
                0.3635418713092804
            ],
            "min" : [
                -0.15210117399692535,
                -0.2997756600379944,
                -0.3635418713092804
            ],
            "type" : "VEC3"
        },
        {
            "bufferView" : 5,
            "componentType" : 5126,
            "count" : 268,
            "type" : "VEC3"
        },
        {
            "bufferView" : 6,
            "componentType" : 5126,
            "count" : 268,
            "type" : "VEC2"
        },
        {
            "bufferView" : 7,
            "componentType" : 5123,
            "count" : 582,
            "type" : "SCALAR"
        },
        {
            "bufferView" : 8,
            "componentType" : 5126,
            "count" : 112,
            "max" : [
                1.3906055688858032,
                0.7438585162162781,
                0.28318530321121216
            ],
            "min" : [
                1.2797551155090332,
                0.013864398002624512,
                -0.28318530321121216
            ],
            "type" : "VEC3"
        },
        {
            "bufferView" : 9,
            "componentType" : 5126,
            "count" : 112,
            "type" : "VEC3"
        },
        {
            "bufferView" : 10,
            "componentType" : 5126,
            "count" : 112,
            "type" : "VEC2"
        },
        {
            "bufferView" : 11,
            "componentType" : 5123,
            "count" : 204,
            "type" : "SCALAR"
        },
        {
            "bufferView" : 12,
            "componentType" : 5126,
            "count" : 106,
            "max" : [
                1.49430513381958,
                0.46007007360458374,
                -0.09037500619888306
            ],
            "min" : [
                1.416003704071045,
                0.31393373012542725,
                -0.23921602964401245
            ],
            "type" : "VEC3"
        },
        {
            "bufferView" : 13,
            "componentType" : 5126,
            "count" : 106,
            "type" : "VEC3"
        },
        {
            "bufferView" : 14,
            "componentType" : 5126,
            "count" : 106,
            "type" : "VEC2"
        },
        {
            "bufferView" : 15,
            "componentType" : 5123,
            "count" : 180,
            "type" : "SCALAR"
        },
        {
            "bufferView" : 16,
            "componentType" : 5126,
            "count" : 228,
            "max" : [
                1.2754491567611694,
                0.029103774577379227,
                1.3307342529296875
            ],
            "min" : [
                -1.2334599494934082,
                -0.0028664860874414444,
                -1.3307342529296875
            ],
            "type" : "VEC3"
        },
        {
            "bufferView" : 17,
            "componentType" : 5126,
            "count" : 228,
            "type" : "VEC3"
        },
        {
            "bufferView" : 18,
            "componentType" : 5126,
            "count" : 228,
            "type" : "VEC2"
        },
        {
            "bufferView" : 19,
            "componentType" : 5123,
            "count" : 360,
            "type" : "SCALAR"
        }
    ],
    "bufferViews" : [
        {
            "buffer" : 0,
            "byteLength" : 12672,
            "byteOffset" : 0
        },
        {
            "buffer" : 0,
            "byteLength" : 12672,
            "byteOffset" : 12672
        },
        {
            "buffer" : 0,
            "byteLength" : 8448,
            "byteOffset" : 25344
        },
        {
            "buffer" : 0,
            "byteLength" : 9168,
            "byteOffset" : 33792
        },
        {
            "buffer" : 0,
            "byteLength" : 3216,
            "byteOffset" : 42960
        },
        {
            "buffer" : 0,
            "byteLength" : 3216,
            "byteOffset" : 46176
        },
        {
            "buffer" : 0,
            "byteLength" : 2144,
            "byteOffset" : 49392
        },
        {
            "buffer" : 0,
            "byteLength" : 1164,
            "byteOffset" : 51536
        },
        {
            "buffer" : 0,
            "byteLength" : 1344,
            "byteOffset" : 52700
        },
        {
            "buffer" : 0,
            "byteLength" : 1344,
            "byteOffset" : 54044
        },
        {
            "buffer" : 0,
            "byteLength" : 896,
            "byteOffset" : 55388
        },
        {
            "buffer" : 0,
            "byteLength" : 408,
            "byteOffset" : 56284
        },
        {
            "buffer" : 0,
            "byteLength" : 1272,
            "byteOffset" : 56692
        },
        {
            "buffer" : 0,
            "byteLength" : 1272,
            "byteOffset" : 57964
        },
        {
            "buffer" : 0,
            "byteLength" : 848,
            "byteOffset" : 59236
        },
        {
            "buffer" : 0,
            "byteLength" : 360,
            "byteOffset" : 60084
        },
        {
            "buffer" : 0,
            "byteLength" : 2736,
            "byteOffset" : 60444
        },
        {
            "buffer" : 0,
            "byteLength" : 2736,
            "byteOffset" : 63180
        },
        {
            "buffer" : 0,
            "byteLength" : 1824,
            "byteOffset" : 65916
        },
        {
            "buffer" : 0,
            "byteLength" : 720,
            "byteOffset" : 67740
        }
    ],
    "samplers" : [
        {
            "magFilter" : 9729,
            "minFilter" : 9987
        }
    ],
    "buffers" : [
        {
            "byteLength" : 68460,
            "uri" : "BeeHouse.bin"
        }
    ]
}
