{
    "asset" : {
        "generator" : "Khronos glTF Blender I/O v3.2.43",
        "version" : "2.0"
    },
    "scene" : 0,
    "scenes" : [
        {
            "name" : "Scene",
            "nodes" : [
                0,
                1,
                2
            ]
        }
    ],
    "nodes" : [
        {
            "mesh" : 0,
            "name" : "Cube"
        },
        {
            "mesh" : 1,
            "name" : "DoorFrame"
        },
        {
            "mesh" : 2,
            "name" : "Door"
        }
    ],
    "materials" : [
        {
            "doubleSided" : true,
            "name" : "BeeHouse",
            "pbrMetallicRoughness" : {
                "baseColorTexture" : {
                    "index" : 0
                },
                "metallicFactor" : 0,
                "roughnessFactor" : 0.4000000059604645
            }
        },
        {
            "doubleSided" : true,
            "name" : "Door",
            "pbrMetallicRoughness" : {
                "baseColorTexture" : {
                    "index" : 1
                },
                "metallicFactor" : 0,
                "roughnessFactor" : 0.5
            }
        }
    ],
    "meshes" : [
        {
            "name" : "Cube",
            "primitives" : [
                {
                    "attributes" : {
                        "POSITION" : 0,
                        "NORMAL" : 1,
                        "TEXCOORD_0" : 2
                    },
                    "indices" : 3,
                    "material" : 0
                }
            ]
        },
        {
            "name" : "Cube.001",
            "primitives" : [
                {
                    "attributes" : {
                        "POSITION" : 4,
                        "NORMAL" : 5,
                        "TEXCOORD_0" : 6
                    },
                    "indices" : 7,
                    "material" : 0
                }
            ]
        },
        {
            "name" : "Cube.002",
            "primitives" : [
                {
                    "attributes" : {
                        "POSITION" : 8,
                        "NORMAL" : 9,
                        "TEXCOORD_0" : 10
                    },
                    "indices" : 11,
                    "material" : 1
                }
            ]
        }
    ],
    "textures" : [
        {
            "sampler" : 0,
            "source" : 0
        },
        {
            "sampler" : 0,
            "source" : 1
        }
    ],
    "images" : [
        {
            "mimeType" : "image/png",
            "name" : "yellow-honeycomb-dark-dull-blurred-64x64",
            "uri" : "yellow-honeycomb-dark-dull-blurred-64x64.png"
        },
        {
            "mimeType" : "image/png",
            "name" : "door-blurred-64x64",
            "uri" : "door-blurred-64x64.png"
        }
    ],
    "accessors" : [
        {
            "bufferView" : 0,
            "componentType" : 5126,
            "count" : 257,
            "max" : [
                1.6062414646148682,
                1.2043734788894653,
                1.6888214349746704
            ],
            "min" : [
                -1.5702589750289917,
                -1.0115571022033691,
                -0.01315319538116455
            ],
            "type" : "VEC3"
        },
        {
            "bufferView" : 1,
            "componentType" : 5126,
            "count" : 257,
            "type" : "VEC3"
        },
        {
            "bufferView" : 2,
            "componentType" : 5126,
            "count" : 257,
            "type" : "VEC2"
        },
        {
            "bufferView" : 3,
            "componentType" : 5123,
            "count" : 1047,
            "type" : "SCALAR"
        },
        {
            "bufferView" : 4,
            "componentType" : 5126,
            "count" : 268,
            "max" : [
                1.5474750995635986,
                -0.23785090446472168,
                0.3635418713092804
            ],
            "min" : [
                1.1918195486068726,
                -1.0289736986160278,
                -0.3635418713092804
            ],
            "type" : "VEC3"
        },
        {
            "bufferView" : 5,
            "componentType" : 5126,
            "count" : 268,
            "type" : "VEC3"
        },
        {
            "bufferView" : 6,
            "componentType" : 5126,
            "count" : 268,
            "type" : "VEC2"
        },
        {
            "bufferView" : 7,
            "componentType" : 5123,
            "count" : 582,
            "type" : "SCALAR"
        },
        {
            "bufferView" : 8,
            "componentType" : 5126,
            "count" : 112,
            "max" : [
                1.3906054496765137,
                -0.2778751254081726,
                0.28318530321121216
            ],
            "min" : [
                1.2797549962997437,
                -1.0078692436218262,
                -0.28318530321121216
            ],
            "type" : "VEC3"
        },
        {
            "bufferView" : 9,
            "componentType" : 5126,
            "count" : 112,
            "type" : "VEC3"
        },
        {
            "bufferView" : 10,
            "componentType" : 5126,
            "count" : 112,
            "type" : "VEC2"
        },
        {
            "bufferView" : 11,
            "componentType" : 5123,
            "count" : 204,
            "type" : "SCALAR"
        }
    ],
    "bufferViews" : [
        {
            "buffer" : 0,
            "byteLength" : 3084,
            "byteOffset" : 0
        },
        {
            "buffer" : 0,
            "byteLength" : 3084,
            "byteOffset" : 3084
        },
        {
            "buffer" : 0,
            "byteLength" : 2056,
            "byteOffset" : 6168
        },
        {
            "buffer" : 0,
            "byteLength" : 2094,
            "byteOffset" : 8224
        },
        {
            "buffer" : 0,
            "byteLength" : 3216,
            "byteOffset" : 10320
        },
        {
            "buffer" : 0,
            "byteLength" : 3216,
            "byteOffset" : 13536
        },
        {
            "buffer" : 0,
            "byteLength" : 2144,
            "byteOffset" : 16752
        },
        {
            "buffer" : 0,
            "byteLength" : 1164,
            "byteOffset" : 18896
        },
        {
            "buffer" : 0,
            "byteLength" : 1344,
            "byteOffset" : 20060
        },
        {
            "buffer" : 0,
            "byteLength" : 1344,
            "byteOffset" : 21404
        },
        {
            "buffer" : 0,
            "byteLength" : 896,
            "byteOffset" : 22748
        },
        {
            "buffer" : 0,
            "byteLength" : 408,
            "byteOffset" : 23644
        }
    ],
    "samplers" : [
        {
            "magFilter" : 9729,
            "minFilter" : 9987
        }
    ],
    "buffers" : [
        {
            "byteLength" : 24052,
            "uri" : "BeeHouse.bin"
        }
    ]
}
